<svg height="100%" width="100%" viewBox="0 0 152 53" xmlns="http://www.w3.org/2000/svg" version="1.1" fill="none">
  <image x="9" y="33" width="120" height="19.8" href="/kockumationLogo.png" />
  <path d="M13 14.2C13 12.4 12.3 10.6 11.1 9.4 9.3 7.6 7.4 7.7 5.1 7.7H1.4V21H4.2C6.7 21 9.2 20.9 11.1 19 12.3 17.8 13 16 13 14.2ZM10.1 14.1C10.1 17.1 8.6 18.7 5.6 18.7H4.2V9.9H5C6.6 9.9 7.9 9.8 9 11 9.8 11.7 10.1 12.7 10.1 14.1ZM23.5 21V18.7H18.1V15.3H23.1V13H18.1V9.9H23.4V7.7H15.3V21H23.5ZM37 19.7L35.8 17.8C35.6 17.9 34.2 18.9 32.4 18.9 29.9 18.9 28.3 17 28.3 14.3 28.3 11.4 30.2 9.7 32.6 9.7 34.5 9.7 35.6 10.6 35.8 10.7L37 8.9C36.8 8.7 35.5 7.3 32.5 7.3 28.5 7.3 25.4 10 25.4 14.4 25.4 18.7 28.3 21.3 32.1 21.3 35.1 21.3 36.9 19.8 37 19.7ZM49.6 21L44.5 14.1 49.3 7.7H46.2L41.8 13.9V7.7H38.9V21H41.8V14.8L46.2 21H49.6ZM66 21L64.8 7.7H61.7L58.5 17.3 55.2 7.7H52.1L50.9 21H53.4L54.1 11.6 57.2 21H59.6L62.6 11.6 63.4 21H66ZM80 21L75.1 7.7H72.3L67.5 21H70.3L71.3 18.2H76.1L77.1 21H80ZM75.4 16H72L73.7 10.7 75.4 16ZM90.3 17.1C90.3 15.8 89.9 15.1 89.3 14.4 87.9 13.1 85.2 12.5 84.5 11.8 84.3 11.6 84.2 11.4 84.2 11 84.2 10.2 85 9.6 86.2 9.6 87.5 9.6 88.8 10.5 88.9 10.6L90.2 8.8C90.1 8.7 88.7 7.3 86 7.3 83.3 7.3 81.4 8.9 81.4 11.3 81.4 12.5 81.9 13.3 82.5 13.8 83.9 15.2 86.2 15.5 87.1 16.4 87.3 16.6 87.5 16.9 87.5 17.3 87.5 18.3 86.6 18.9 85.3 18.9 83.7 18.9 82.5 18 82.2 17.9L81 19.8C81.1 19.9 82.6 21.3 85.5 21.3 88.4 21.3 90.3 19.6 90.3 17.1ZM102.1 9.9V7.7H91.9V9.9H95.6V21H98.4V9.9H102.1ZM112.3 21V18.7H106.8V15.3H111.8V13H106.8V9.9H112.1V7.7H104V21H112.3ZM124.7 21L123.2 17.7C122.8 16.7 122.2 15 120.8 14.9 122.8 14.6 123.7 13.1 123.7 11.5 123.7 10.3 123.3 9.4 122.6 8.8 121.4 7.6 119.9 7.7 118.1 7.7H114.7V21H117.4V15.7H117.8C118.8 15.7 119.3 15.7 120.1 17.4L121.7 21H124.7ZM120.9 11.6C120.9 12.1 120.7 12.7 120.4 13 120 13.4 119.5 13.5 118.6 13.5H117.4V9.9H118.3C119.3 9.9 120 9.9 120.5 10.4 120.7 10.6 120.9 11.1 120.9 11.6ZM141.1 14.7L140.4 7.7H138.6L137.1 12.3 135.5 7.7H133.7L133 14.7H134.6L134.9 10.5 136.3 14.7H137.7L139.1 10.5 139.4 14.7H141.1ZM132 9.1V7.7H126.1V9.1H128.2V14.7H129.9V9.1H132Z" fill="#004C92"/>
  <path d="M13 14.2C13 12.4 12.3 10.6 11.1 9.4 9.3 7.6 7.4 7.7 5.1 7.7H1.4V21H4.2C6.7 21 9.2 20.9 11.1 19 12.3 17.8 13 16 13 14.2ZM10.1 14.1C10.1 17.1 8.6 18.7 5.6 18.7H4.2V9.9H5C6.6 9.9 7.9 9.8 9 11 9.8 11.7 10.1 12.7 10.1 14.1ZM23.5 21V18.7H18.1V15.3H23.1V13H18.1V9.9H23.4V7.7H15.3V21H23.5ZM37 19.7L35.8 17.8C35.6 17.9 34.2 18.9 32.4 18.9 29.9 18.9 28.3 17 28.3 14.3 28.3 11.4 30.2 9.7 32.6 9.7 34.5 9.7 35.6 10.6 35.8 10.7L37 8.9C36.8 8.7 35.5 7.3 32.5 7.3 28.5 7.3 25.4 10 25.4 14.4 25.4 18.7 28.3 21.3 32.1 21.3 35.1 21.3 36.9 19.8 37 19.7ZM49.6 21L44.5 14.1 49.3 7.7H46.2L41.8 13.9V7.7H38.9V21H41.8V14.8L46.2 21H49.6ZM66 21L64.8 7.7H61.7L58.5 17.3 55.2 7.7H52.1L50.9 21H53.4L54.1 11.6 57.2 21H59.6L62.6 11.6 63.4 21H66ZM80 21L75.1 7.7H72.3L67.5 21H70.3L71.3 18.2H76.1L77.1 21H80ZM75.4 16H72L73.7 10.7 75.4 16ZM90.3 17.1C90.3 15.8 89.9 15.1 89.3 14.4 87.9 13.1 85.2 12.5 84.5 11.8 84.3 11.6 84.2 11.4 84.2 11 84.2 10.2 85 9.6 86.2 9.6 87.5 9.6 88.8 10.5 88.9 10.6L90.2 8.8C90.1 8.7 88.7 7.3 86 7.3 83.3 7.3 81.4 8.9 81.4 11.3 81.4 12.5 81.9 13.3 82.5 13.8 83.9 15.2 86.2 15.5 87.1 16.4 87.3 16.6 87.5 16.9 87.5 17.3 87.5 18.3 86.6 18.9 85.3 18.9 83.7 18.9 82.5 18 82.2 17.9L81 19.8C81.1 19.9 82.6 21.3 85.5 21.3 88.4 21.3 90.3 19.6 90.3 17.1ZM102.1 9.9V7.7H91.9V9.9H95.6V21H98.4V9.9H102.1ZM112.3 21V18.7H106.8V15.3H111.8V13H106.8V9.9H112.1V7.7H104V21H112.3ZM124.7 21L123.2 17.7C122.8 16.7 122.2 15 120.8 14.9 122.8 14.6 123.7 13.1 123.7 11.5 123.7 10.3 123.3 9.4 122.6 8.8 121.4 7.6 119.9 7.7 118.1 7.7H114.7V21H117.4V15.7H117.8C118.8 15.7 119.3 15.7 120.1 17.4L121.7 21H124.7ZM120.9 11.6C120.9 12.1 120.7 12.7 120.4 13 120 13.4 119.5 13.5 118.6 13.5H117.4V9.9H118.3C119.3 9.9 120 9.9 120.5 10.4 120.7 10.6 120.9 11.1 120.9 11.6ZM141.1 14.7L140.4 7.7H138.6L137.1 12.3 135.5 7.7H133.7L133 14.7H134.6L134.9 10.5 136.3 14.7H137.7L139.1 10.5 139.4 14.7H141.1ZM132 9.1V7.7H126.1V9.1H128.2V14.7H129.9V9.1H132Z" style="fill-opacity:0.5;fill:url(#paint0_linear)"/>  
  <defs>
    <linearGradient id="paint0_linear" x1="76" x2="76" y2="28" gradientUnits="userSpaceOnUse">
      <stop stop-color="white"/>
      <stop offset="1" stopColor="white" stopOpacity="0"/>
    </linearGradient>
  </defs>
</svg>