<svg width="152" height="53" viewBox="0 0 152 53" fill="none" xmlns="http://www.w3.org/2000/svg" xmlns:xlink="http://www.w3.org/1999/xlink">
<rect x="9" y="33" width="120" height="19.7778" fill="url(#pattern0)"/>
<path d="M12.96 14.22C12.96 12.36 12.3 10.6 11.14 9.44C9.34 7.64 7.38 7.66 5.1 7.66H1.42V21H4.16C6.7 21 9.2 20.94 11.14 19C12.34 17.8 12.96 16.02 12.96 14.22ZM10.14 14.14C10.14 17.12 8.56 18.74 5.56 18.74H4.22V9.88H5.02C6.56 9.88 7.86 9.84 9 10.98C9.76 11.74 10.14 12.72 10.14 14.14ZM23.5467 21V18.68H18.1067V15.28H23.0667V13.04H18.1067V9.94H23.3867V7.66H15.3067V21H23.5467ZM37.0117 19.66L35.8317 17.76C35.6117 17.88 34.1917 18.86 32.4317 18.86C29.8917 18.86 28.2717 17.04 28.2717 14.26C28.2717 11.42 30.1517 9.72 32.5717 9.72C34.5117 9.72 35.5917 10.64 35.7517 10.74L36.9717 8.88C36.8317 8.74 35.4517 7.34 32.4517 7.34C28.4717 7.34 25.4317 10 25.4317 14.44C25.4317 18.72 28.3317 21.32 32.0917 21.32C35.1117 21.32 36.8517 19.82 37.0117 19.66ZM49.56 21L44.46 14.14L49.3 7.66H46.18L41.76 13.9V7.66H38.92V21H41.76V14.78L46.16 21H49.56ZM66.0438 21L64.7638 7.66H61.7238L58.5438 17.32L55.1838 7.66H52.1438L50.9438 21H53.4438L54.0638 11.62L57.2438 21H59.5638L62.6438 11.62L63.3838 21H66.0438ZM80.0084 21L75.1484 7.66H72.3084L67.4684 21H70.3284L71.3084 18.22H76.1084L77.0884 21H80.0084ZM75.3684 16.04H72.0084L73.6884 10.68L75.3684 16.04ZM90.312 17.06C90.312 15.82 89.912 15.08 89.272 14.44C87.892 13.06 85.152 12.46 84.512 11.82C84.292 11.6 84.172 11.42 84.172 11.02C84.172 10.18 85.012 9.62 86.192 9.62C87.532 9.62 88.752 10.48 88.932 10.62L90.212 8.8C90.092 8.68 88.652 7.34 86.012 7.34C83.332 7.34 81.392 8.9 81.392 11.3C81.392 12.5 81.912 13.28 82.452 13.82C83.852 15.22 86.232 15.54 87.072 16.38C87.272 16.58 87.452 16.92 87.452 17.32C87.452 18.3 86.612 18.94 85.312 18.94C83.732 18.94 82.492 18.04 82.212 17.86L80.972 19.78C81.112 19.94 82.632 21.32 85.472 21.32C88.392 21.32 90.312 19.58 90.312 17.06ZM102.086 9.94V7.66H91.9463V9.94H95.6063V21H98.4463V9.94H102.086ZM112.277 21V18.68H106.837V15.28H111.797V13.04H106.837V9.94H112.117V7.66H104.037V21H112.277ZM124.702 21L123.242 17.74C122.782 16.72 122.202 15.02 120.782 14.88C122.782 14.58 123.722 13.12 123.722 11.48C123.722 10.32 123.262 9.44 122.642 8.82C121.422 7.6 119.862 7.66 118.082 7.66H114.662V21H117.442V15.72H117.762C118.842 15.72 119.322 15.66 120.082 17.38L121.702 21H124.702ZM120.902 11.62C120.902 12.08 120.702 12.66 120.382 12.98C119.962 13.4 119.502 13.54 118.562 13.54H117.442V9.88H118.262C119.302 9.88 119.982 9.86 120.482 10.36C120.722 10.6 120.902 11.08 120.902 11.62ZM141.076 14.74L140.396 7.66H138.596L137.076 12.32L135.456 7.66H133.676L133.016 14.74H134.596L134.876 10.5L136.296 14.74H137.696L139.076 10.5L139.416 14.74H141.076ZM131.956 9.12V7.66H126.096V9.12H128.156V14.74H129.916V9.12H131.956Z" fill="#004C92"/>
<path d="M12.96 14.22C12.96 12.36 12.3 10.6 11.14 9.44C9.34 7.64 7.38 7.66 5.1 7.66H1.42V21H4.16C6.7 21 9.2 20.94 11.14 19C12.34 17.8 12.96 16.02 12.96 14.22ZM10.14 14.14C10.14 17.12 8.56 18.74 5.56 18.74H4.22V9.88H5.02C6.56 9.88 7.86 9.84 9 10.98C9.76 11.74 10.14 12.72 10.14 14.14ZM23.5467 21V18.68H18.1067V15.28H23.0667V13.04H18.1067V9.94H23.3867V7.66H15.3067V21H23.5467ZM37.0117 19.66L35.8317 17.76C35.6117 17.88 34.1917 18.86 32.4317 18.86C29.8917 18.86 28.2717 17.04 28.2717 14.26C28.2717 11.42 30.1517 9.72 32.5717 9.72C34.5117 9.72 35.5917 10.64 35.7517 10.74L36.9717 8.88C36.8317 8.74 35.4517 7.34 32.4517 7.34C28.4717 7.34 25.4317 10 25.4317 14.44C25.4317 18.72 28.3317 21.32 32.0917 21.32C35.1117 21.32 36.8517 19.82 37.0117 19.66ZM49.56 21L44.46 14.14L49.3 7.66H46.18L41.76 13.9V7.66H38.92V21H41.76V14.78L46.16 21H49.56ZM66.0438 21L64.7638 7.66H61.7238L58.5438 17.32L55.1838 7.66H52.1438L50.9438 21H53.4438L54.0638 11.62L57.2438 21H59.5638L62.6438 11.62L63.3838 21H66.0438ZM80.0084 21L75.1484 7.66H72.3084L67.4684 21H70.3284L71.3084 18.22H76.1084L77.0884 21H80.0084ZM75.3684 16.04H72.0084L73.6884 10.68L75.3684 16.04ZM90.312 17.06C90.312 15.82 89.912 15.08 89.272 14.44C87.892 13.06 85.152 12.46 84.512 11.82C84.292 11.6 84.172 11.42 84.172 11.02C84.172 10.18 85.012 9.62 86.192 9.62C87.532 9.62 88.752 10.48 88.932 10.62L90.212 8.8C90.092 8.68 88.652 7.34 86.012 7.34C83.332 7.34 81.392 8.9 81.392 11.3C81.392 12.5 81.912 13.28 82.452 13.82C83.852 15.22 86.232 15.54 87.072 16.38C87.272 16.58 87.452 16.92 87.452 17.32C87.452 18.3 86.612 18.94 85.312 18.94C83.732 18.94 82.492 18.04 82.212 17.86L80.972 19.78C81.112 19.94 82.632 21.32 85.472 21.32C88.392 21.32 90.312 19.58 90.312 17.06ZM102.086 9.94V7.66H91.9463V9.94H95.6063V21H98.4463V9.94H102.086ZM112.277 21V18.68H106.837V15.28H111.797V13.04H106.837V9.94H112.117V7.66H104.037V21H112.277ZM124.702 21L123.242 17.74C122.782 16.72 122.202 15.02 120.782 14.88C122.782 14.58 123.722 13.12 123.722 11.48C123.722 10.32 123.262 9.44 122.642 8.82C121.422 7.6 119.862 7.66 118.082 7.66H114.662V21H117.442V15.72H117.762C118.842 15.72 119.322 15.66 120.082 17.38L121.702 21H124.702ZM120.902 11.62C120.902 12.08 120.702 12.66 120.382 12.98C119.962 13.4 119.502 13.54 118.562 13.54H117.442V9.88H118.262C119.302 9.88 119.982 9.86 120.482 10.36C120.722 10.6 120.902 11.08 120.902 11.62ZM141.076 14.74L140.396 7.66H138.596L137.076 12.32L135.456 7.66H133.676L133.016 14.74H134.596L134.876 10.5L136.296 14.74H137.696L139.076 10.5L139.416 14.74H141.076ZM131.956 9.12V7.66H126.096V9.12H128.156V14.74H129.916V9.12H131.956Z" fill="url(#paint0_linear)" fill-opacity="0.45"/>
<defs>
<pattern id="pattern0" patternContentUnits="objectBoundingBox" width="1" height="1">
<use href="#image0" transform="scale(0.000925926 0.00561798)"/>
</pattern>
<linearGradient id="paint0_linear" x1="76" y1="0" x2="76" y2="28" gradientUnits="userSpaceOnUse">
<stop stop-color="white"/>
<stop offset="1" stop-color="white" stop-opacity="0"/>
</linearGradient>
<image id="image0" width="1080" height="178" href="../images/kockumationLogo.png"/>
</defs>
</svg>
