<svg height="100%" viewBox="0 0 50 40" xmlns="http://www.w3.org/2000/svg" fill="none">
<style>
  .a{
    fill:#333;
  }
</style>
  <path d="M0 2.7C0 1.2 1.5 0 3.3 0H46.7C48.5 0 50 1.2 50 2.7 50 4.1 48.5 5.3 46.7 5.3H3.3C1.5 5.3 0 4.1 0 2.7Z" class="a"/>
  <path d="M0 20C0 18.5 1.5 17.3 3.3 17.3H38.8C40.6 17.3 42.5 18.5 42.5 20 42.5 21.5 40.6 22.7 38.8 22.7H3.3C1.5 22.7 0 21.5 0 20Z" class="a"/>
  <path d="M3.3 34.7C1.5 34.7 0 35.9 0 37.3 0 38.8 1.5 40 3.3 40H46.7C48.5 40 50 38.8 50 37.3 50 35.9 48.5 34.7 46.7 34.7H3.3Z" class="a"/>
</svg>