<svg width="40" height="32" viewBox="0 0 40 32" xmlns="http://www.w3.org/2000/svg" fill="none">
<style>
  .a{
    fill:#333;
  }
</style>
  <path d="M0 2.1C0 1 1.2 0 2.7 0H37.3C38.8 0 40 1 40 2.1 40 3.3 38.8 4.3 37.3 4.3H2.7C1.2 4.3 0 3.3 0 2.1Z" class="a"/>
  <path d="M0 16C0 14.8 1.2 13.9 2.7 13.9H31C32.5 13.9 34 14.8 34 16 34 17.2 32.5 18.1 31 18.1H2.7C1.2 18.1 0 17.2 0 16Z" class="a"/>
  <path d="M2.7 27.7C1.2 27.7 0 28.7 0 29.9 0 31 1.2 32 2.7 32H37.3C38.8 32 40 31 40 29.9 40 28.7 38.8 27.7 37.3 27.7H2.7Z" class="a"/>
</svg>