<svg height="100%" viewBox="0 0 47 42" xmlns="http://www.w3.org/2000/svg" fill="none" preserveAspectRatio="xMidYMid meet">
  <path d="M23.2 1.1C19.5 0.6 11.7 2.6 10.6 14.7M10.6 14.8C9.6 21.4 6.4 34.5 1.1 33.8M1.1 33.8C1.1 33.8 1 33.8 1 33.8M1.1 33.8V33.8M1.1 33.8V36.3M1.1 36.3V36.6M1.1 36.3L1 36.3M1.1 36.3L23.2 36M23.2 1.1C27 0.6 34.7 2.6 35.9 14.7M35.9 14.8C36.8 21.4 40.1 34.5 45.4 33.8M45.4 33.8C45.4 33.8 45.4 33.8 45.4 33.8M45.4 33.8V33.8M45.4 33.8V36.3M45.4 36.3V36.5M45.4 36.3L45.4 36.3M45.4 36.3L23.2 36M27.7 36.6C27.5 39 25.5 41 22.9 41 20.4 41 18.4 39 18.2 36.6H18.8C18.9 38.7 20.7 40.4 22.9 40.4 25.1 40.4 27 38.7 27.1 36.6H27.7Z" style="stroke-width:2;stroke:#333"/>
</svg>